<svg width="1289" height="855" viewBox="0 0 1289 855" fill="none" xmlns="http://www.w3.org/2000/svg">
<path d="M955.273 11.6883C959.643 15.1056 963.723 18.7681 967.726 22.6063C968.364 23.1928 969.002 23.7793 969.659 24.3836C977.536 31.8395 982.779 41.0542 987.726 50.6063C988.243 51.5653 988.76 52.5244 989.292 53.5125C995.414 65.1725 998.967 75.0337 996.202 88.075C993.363 103.155 998.982 119.943 1006.43 133.036C1009.35 138.835 1010.07 144.36 1010.04 150.731C1010.05 151.421 1010.07 152.111 1010.09 152.821C1010.09 157.2 1009.81 160.377 1006.73 163.606C1003.39 164.266 1003.39 164.266 999.726 163.606C997.499 161.767 995.946 160.239 994.163 158.044C993.453 157.22 993.453 157.22 992.729 156.379C991.376 154.803 990.049 153.208 988.726 151.606C987.603 150.292 986.478 148.979 985.351 147.669C984.951 147.185 984.552 146.702 984.14 146.204C980.603 142.208 976.665 138.556 972.862 134.813C971.046 133.015 969.23 131.217 967.413 129.419C966.482 128.504 965.551 127.59 964.591 126.647C963.711 125.774 962.831 124.901 961.925 124.001C960.716 122.807 960.716 122.807 959.482 121.59C957.726 119.606 957.726 119.606 957.726 117.606C957.153 117.356 956.581 117.106 955.991 116.848C953.414 115.435 951.631 113.732 949.476 111.731C940.433 104.181 929.372 99.4807 918.726 94.6063C917.803 94.1727 916.88 93.7391 915.929 93.2923C915.059 92.9074 914.189 92.5224 913.292 92.1258C912.53 91.7827 911.767 91.4395 910.982 91.086C907.965 90.4444 906.43 91.217 903.726 92.6063C894.329 100.544 889.625 112.87 888.101 124.856C886.249 147.957 890.157 167.993 899.633 189.129C901.637 193.672 903.515 198.268 905.413 202.856C915.43 227.069 915.43 227.069 926.742 250.691C935.448 267.636 944.028 284.753 950.726 302.606C951.018 303.378 951.31 304.15 951.611 304.945C956.525 318.3 957.693 330.442 956.726 344.606C956.664 345.685 956.602 346.764 956.538 347.876C954.183 367.51 937.844 386.11 923.351 398.356C892.791 422.14 852.821 436.371 815.167 444.098C810.345 445.102 805.537 446.176 800.726 447.231C790.781 449.407 780.853 451.503 770.788 453.044C769.321 453.271 767.853 453.499 766.386 453.727C765.585 453.848 764.785 453.969 763.96 454.093C761.514 454.481 759.081 454.897 756.645 455.334C745.635 457.261 735.031 458.045 723.869 458.01C722.18 458.016 720.49 458.023 718.801 458.031C714.273 458.049 709.746 458.048 705.219 458.042C701.41 458.039 697.602 458.045 693.793 458.051C684.791 458.065 675.789 458.064 666.788 458.052C657.568 458.041 648.348 458.055 639.129 458.082C631.152 458.104 623.175 458.11 615.198 458.105C610.461 458.101 605.723 458.103 600.986 458.121C578.675 458.195 557.391 457.934 535.873 451.264C533.313 450.48 530.737 449.825 528.132 449.212C509.403 444.718 491.892 439.421 474.726 430.606C473.999 430.235 473.272 429.864 472.523 429.482C460.453 423.245 449.519 415.836 438.726 407.606C437.183 406.45 437.183 406.45 435.609 405.27C424.264 396.425 415.133 385.388 406.405 374.04C403.779 370.64 401.023 367.366 398.226 364.106C393.423 358.495 388.837 352.736 384.308 346.903C381.421 343.191 378.416 339.578 375.382 335.985C373.726 333.606 373.726 333.606 372.362 330.247C370.471 326.04 368.104 323.181 365.038 319.794C363.951 318.559 362.865 317.323 361.78 316.087C361.254 315.49 360.728 314.894 360.186 314.28C356.891 310.503 353.819 306.548 350.726 302.606C349.865 301.516 349.005 300.426 348.144 299.337C345.794 296.36 343.455 293.375 341.119 290.387C340.205 289.219 339.289 288.053 338.371 286.888C333.463 280.664 328.776 274.405 324.62 267.641C323.198 265.363 321.745 263.136 320.237 260.915C312.643 249.641 306.59 237.854 300.726 225.606C299.911 223.93 299.096 222.254 298.28 220.579C293.363 210.413 288.803 200.138 284.726 189.606C284.43 188.844 284.134 188.082 283.829 187.297C282.943 184.99 282.08 182.675 281.226 180.356C280.824 179.301 280.824 179.301 280.414 178.225C279.011 174.308 278.422 171.611 279.726 167.606C284.812 167.972 287.408 170.743 290.851 174.169C295.635 178.756 300.494 182.825 305.941 186.626C308.98 188.787 311.872 191.094 314.788 193.419C322.637 199.555 331.12 204.613 339.726 209.606C340.362 209.98 340.999 210.354 341.655 210.74C360.338 221.62 382.872 230.607 404.652 230.845C405.393 230.854 406.134 230.864 406.897 230.874C409.278 230.899 411.658 230.911 414.038 230.919C414.848 230.922 415.657 230.925 416.491 230.928C428.411 230.938 439.288 230.183 450.726 226.606C452.6 226.146 454.475 225.687 456.351 225.231C469.323 221.48 480.89 216.098 492.807 209.782C510.529 200.425 528.68 191.906 547.726 185.606C548.917 185.209 550.108 184.812 551.335 184.403C566.726 179.651 582.277 178.127 598.315 178.325C600.857 178.356 603.398 178.366 605.941 178.372C621.21 178.442 635.928 178.622 650.668 183.019C653.717 183.889 656.796 184.623 659.879 185.367C663.321 186.201 666.753 187.076 670.185 187.957C671.822 188.376 673.461 188.787 675.103 189.189C696.921 194.607 717.938 205.395 736.726 217.606C737.883 218.35 739.04 219.094 740.198 219.837C741.952 220.964 743.705 222.093 745.453 223.228C750.279 226.354 755.187 229.327 760.138 232.249C764.756 234.984 769.279 237.859 773.801 240.75C776.694 242.586 779.604 244.39 782.523 246.184C800.712 257.391 800.712 257.391 808.726 263.544C815.864 269.007 823.548 272.924 831.726 276.606C832.583 276.994 833.44 277.382 834.323 277.782C837.099 278.734 839.616 279.02 842.538 279.231C843.454 279.297 844.371 279.364 845.314 279.432C846.11 279.489 846.906 279.547 847.726 279.606C846.008 269.784 843.214 261.092 839.4 251.933C831.748 233.494 825.583 214.762 820.851 195.356C820.659 194.572 820.468 193.787 820.271 192.978C817.262 179.954 816.257 167.051 816.226 153.731C816.22 152.519 816.22 152.519 816.215 151.283C816.205 137.871 818.048 125.96 822.008 113.109C823.106 109.28 823.782 105.411 824.413 101.481C830.135 67.0922 841.416 38.3947 868.956 15.7742C894.179 -2.16099 929.086 -6.50598 955.273 11.6883Z" fill="black"/>
<path d="M602.749 188.911C606.683 189.499 610.614 189.891 614.577 190.239C630.918 191.674 646.746 193.901 662.726 197.606C663.825 197.854 664.924 198.101 666.057 198.356C682.493 202.1 697.544 207.296 712.726 214.606C713.511 214.98 714.296 215.353 715.105 215.738C728.602 222.182 740.813 229.955 753.108 238.431C757.632 241.548 762.189 244.61 766.769 247.645C768.983 249.114 771.194 250.588 773.401 252.067C787.252 261.345 801.305 270.236 815.726 278.606C816.749 279.204 817.773 279.803 818.827 280.419C825.874 284.084 833.176 284.617 840.979 285.247C844.726 285.606 844.726 285.606 846.726 286.606C846.526 288.899 846.526 288.899 845.726 291.606C843.644 293.345 843.644 293.345 840.913 294.919C839.915 295.516 838.918 296.112 837.89 296.727C836.323 297.657 836.323 297.657 834.726 298.606C828.62 302.525 822.702 306.588 816.976 311.044C797.778 325.644 777.153 334.31 752.726 331.606C743.17 329.722 734.58 325.671 726.046 321.106C721.717 319.151 717.289 317.899 712.726 316.606C700.213 313.022 690.674 308.045 680.726 299.606C679.066 298.285 677.4 296.972 675.726 295.669C675.004 295.103 674.282 294.537 673.538 293.954C671.763 292.552 671.763 292.552 669.726 291.606C669.396 290.616 669.066 289.626 668.726 288.606C666.913 287.362 666.913 287.362 664.64 286.337C663.79 285.922 662.941 285.508 662.065 285.081C660.722 284.444 660.722 284.444 659.351 283.794C657.613 282.956 655.876 282.116 654.14 281.274C653.25 280.849 652.361 280.424 651.445 279.986C648.726 278.606 648.726 278.606 646.031 276.984C639.128 272.837 633.655 271.714 625.663 271.481C609.49 270.568 595.574 267.376 580.616 261.192C579.941 260.918 579.265 260.643 578.569 260.36C577.039 259.735 575.516 259.092 573.995 258.446C568.792 257.11 563.512 257.072 558.163 256.794C549.499 256.257 542.829 255.361 534.972 251.704C529.832 249.966 524.699 250.056 519.314 249.912C507.625 249.571 496.696 247.194 485.593 243.473C482.648 242.583 479.767 242.049 476.726 241.606C476.726 240.616 476.726 239.626 476.726 238.606C475.241 239.101 475.241 239.101 473.726 239.606C464.278 240.332 455.852 238.905 446.726 236.606C446.726 235.286 446.726 233.966 446.726 232.606C450.367 230.989 453.59 230.255 457.538 229.794C477.476 226.869 497.047 218.062 515.062 209.352C518.767 207.566 522.529 205.997 526.37 204.524C529.019 203.492 531.616 202.36 534.226 201.231C542.233 197.888 550.448 195.192 558.726 192.606C559.754 192.284 560.783 191.962 561.843 191.63C575.199 187.884 589.062 186.85 602.749 188.911Z" fill="#717171"/>
<path d="M602.749 188.911C606.683 189.499 610.614 189.891 614.577 190.239C641.077 192.567 669.989 196.241 694.726 206.606C694.396 207.926 694.066 209.246 693.726 210.606C693.117 210.436 692.509 210.266 691.882 210.091C685.409 208.301 678.913 206.634 672.386 205.053C669.503 204.345 666.684 203.592 663.877 202.622C644.399 196.344 621.977 195.421 601.726 194.606C600.715 194.561 599.704 194.516 598.663 194.469C577.022 193.6 557.97 198.314 537.726 205.606C536.249 206.128 534.773 206.649 533.296 207.169C530.1 208.298 526.91 209.445 523.726 210.606C524.328 210.419 524.93 210.233 525.551 210.04C531.671 208.169 537.813 206.524 544.038 205.044C544.886 204.836 545.733 204.627 546.606 204.413C559.08 201.432 571.247 200.201 584.038 200.231C584.788 200.231 585.538 200.23 586.311 200.23C607.967 200.268 629.565 203.012 650.726 207.606C650.726 207.936 650.726 208.266 650.726 208.606C643.555 211.901 636.13 210.105 628.663 208.669C582.841 200.133 539.637 209.38 496.987 226.243C491.374 228.432 485.775 230.055 479.913 231.419C478.57 231.743 478.57 231.743 477.2 232.073C475.044 232.592 472.886 233.103 470.726 233.606C491.714 234.16 514.909 224.959 534.601 218.356C550.094 213.225 567.209 210.519 583.538 210.419C584.596 210.405 585.655 210.39 586.745 210.376C589.726 210.606 589.726 210.606 592.088 211.601C594.88 212.665 596.929 212.873 599.901 212.915C601.378 212.949 601.378 212.949 602.884 212.984C603.925 213.004 604.966 213.024 606.038 213.044C615.093 213.327 623.504 214.111 632.358 216.091C636.473 216.987 640.608 217.786 644.74 218.603C649.737 219.593 654.731 220.6 659.726 221.606C659.726 223.256 659.726 224.906 659.726 226.606C655.85 225.837 651.975 225.066 648.101 224.294C646.952 224.066 645.803 223.838 644.619 223.603C638.757 222.435 632.922 221.211 627.101 219.856C614.977 217.254 602.391 217.42 590.037 217.421C587.727 217.419 585.418 217.401 583.108 217.382C557.765 217.285 534.357 224.402 510.265 231.513C508.646 231.989 508.646 231.989 506.995 232.474C504.902 233.091 502.81 233.71 500.719 234.334C496.071 235.705 491.546 236.978 486.726 237.606C487.389 237.872 488.053 238.137 488.737 238.411C496.726 241.606 496.726 241.606 499.245 242.669C524.427 252.187 557.249 243.645 582.826 239.141C634.107 230.195 677.302 236.788 723.645 260.549C731.39 264.508 739.183 268.1 747.307 271.21C749.145 271.933 750.941 272.76 752.726 273.606C753.056 274.596 753.386 275.586 753.726 276.606C750.524 277.672 748.868 277.583 745.776 276.27C745.02 275.953 744.265 275.635 743.486 275.308C742.678 274.953 741.87 274.598 741.038 274.231C740.186 273.866 739.335 273.5 738.458 273.123C733.103 270.779 727.961 268.187 722.851 265.356C715.166 261.131 707.185 257.67 699.101 254.294C697.91 253.79 696.719 253.286 695.492 252.767C659.746 238.069 617.78 236.432 580.132 244.132C576.779 244.793 573.43 245.241 570.038 245.669C563.617 246.49 557.202 247.353 550.788 248.231C548.862 248.494 546.937 248.757 545.011 249.02C543.582 249.216 542.154 249.411 540.726 249.606C548.291 252.029 555.107 253.09 563.038 252.981C564.116 252.975 565.194 252.97 566.304 252.964C574.496 252.837 582.531 252.052 590.663 251.106C603.328 249.657 615.859 249.296 628.601 249.294C629.929 249.289 629.929 249.289 631.283 249.284C646.342 249.25 660.963 250.1 675.538 254.231C676.472 254.491 677.406 254.75 678.368 255.017C685.147 256.976 691.526 259.482 697.961 262.354C709.1 267.237 720.789 270.716 732.342 274.476C735.466 275.52 738.558 276.624 741.647 277.766C745.89 279.331 750.103 280.644 754.476 281.794C755.687 282.117 756.899 282.441 758.147 282.774C761.685 283.597 765.127 284.149 768.726 284.606C768.066 284.936 767.406 285.266 766.726 285.606C766.726 286.266 766.726 286.926 766.726 287.606C761.65 288.856 757.759 288.187 752.851 286.731C752.081 286.511 751.311 286.29 750.519 286.063C742.745 283.755 735.189 280.881 727.622 277.978C721.616 275.675 715.599 273.512 709.476 271.544C703.05 269.477 696.836 267.062 690.601 264.481C682.102 260.984 673.692 258.554 664.726 256.606C663.507 256.287 663.507 256.287 662.265 255.962C637.55 249.576 608.925 253.617 583.726 255.606C584.614 255.948 585.502 256.289 586.418 256.641C587.585 257.09 588.753 257.538 589.956 258.001C591.113 258.445 592.269 258.89 593.461 259.348C595.334 260.07 597.206 260.795 599.074 261.531C607.174 264.678 613.992 265.889 622.601 265.669C624.285 265.634 625.97 265.604 627.655 265.579C628.39 265.561 629.124 265.543 629.881 265.525C631.726 265.606 631.726 265.606 633.726 266.606C636.099 266.809 638.453 266.959 640.831 267.071C642.306 267.15 643.78 267.229 645.255 267.307C647.562 267.426 649.87 267.542 652.177 267.656C666.179 268.359 679.933 269.334 693.413 273.481C694.387 273.772 695.361 274.062 696.365 274.361C702.923 276.349 709.427 278.489 715.925 280.665C716.722 280.932 717.52 281.199 718.342 281.474C722.32 282.809 726.294 284.155 730.263 285.518C737.689 288.051 744.96 290.333 752.726 291.606C749.888 294.444 747.678 294.32 743.726 294.606C740.586 294.005 740.586 294.005 737.401 292.981C736.218 292.608 735.034 292.234 733.815 291.849C732.569 291.439 731.322 291.029 730.038 290.606C728.733 290.189 727.427 289.773 726.121 289.358C718.724 286.991 711.401 284.443 704.101 281.794C686.355 275.418 663.675 270.085 644.726 272.606C643.736 273.266 642.746 273.926 641.726 274.606C641.173 274.286 640.621 273.967 640.052 273.637C637.403 272.464 635.387 272.266 632.499 272.114C630.965 272.02 630.965 272.02 629.4 271.924C628.311 271.86 627.222 271.797 626.101 271.731C609.83 270.577 595.682 267.421 580.616 261.192C579.941 260.918 579.265 260.643 578.569 260.36C577.039 259.735 575.516 259.092 573.995 258.446C568.792 257.11 563.512 257.072 558.163 256.794C549.499 256.257 542.829 255.361 534.972 251.704C529.832 249.966 524.699 250.056 519.314 249.912C507.625 249.571 496.696 247.194 485.593 243.473C482.648 242.583 479.767 242.049 476.726 241.606C476.726 240.616 476.726 239.626 476.726 238.606C475.241 239.101 475.241 239.101 473.726 239.606C464.278 240.332 455.852 238.905 446.726 236.606C446.726 235.286 446.726 233.966 446.726 232.606C450.367 230.989 453.59 230.255 457.538 229.794C477.476 226.869 497.047 218.062 515.062 209.352C518.767 207.566 522.529 205.997 526.37 204.524C529.019 203.492 531.616 202.36 534.226 201.231C542.233 197.888 550.448 195.192 558.726 192.606C559.754 192.284 560.783 191.962 561.843 191.63C575.199 187.884 589.062 186.85 602.749 188.911Z" fill="#707070"/>
<path d="M926.726 416.606C927.654 419.096 927.865 420.245 926.897 422.763C920.336 433.579 912.162 442.022 901.882 449.321C899.631 450.951 897.508 452.584 895.382 454.36C887.353 461.046 879.421 465.682 869.726 469.606C868.927 469.932 868.129 470.258 867.307 470.594C863.008 472.344 858.699 474.064 854.378 475.759C850.746 477.187 847.17 478.714 843.601 480.294C830.65 485.688 816.94 488.487 803.081 490.298C801.57 490.496 800.061 490.703 798.554 490.923C770.05 495.039 738.821 494.091 710.396 489.836C700.502 488.435 690.563 487.749 680.601 487.044C679.708 486.98 678.815 486.917 677.894 486.851C669.176 486.233 660.457 485.645 651.733 485.114C636.541 484.164 621.706 482.322 606.726 479.606C606.396 478.286 606.066 476.966 605.726 475.606C607.041 475.577 607.041 475.577 608.383 475.546C611.841 475.465 615.299 475.379 618.757 475.289C620.215 475.252 621.673 475.217 623.132 475.185C631.417 474.997 639.68 474.696 647.949 474.121C665.539 472.915 683.042 472.435 700.675 472.481C702.302 472.486 702.302 472.486 703.962 472.49C711.779 472.514 719.596 472.559 727.413 472.606C735.309 472.654 743.204 472.695 751.1 472.718C754.204 472.731 757.308 472.756 760.412 472.782C771.38 472.838 781.877 472.255 792.726 470.606C794.448 470.407 796.172 470.215 797.897 470.036C814.651 468.085 832.683 464.412 847.726 456.606C849.614 455.797 851.51 455.005 853.413 454.231C858.366 452.193 863.238 450.019 868.101 447.774C870.494 446.709 872.897 445.772 875.351 444.856C888.487 439.635 899.789 432.449 910.726 423.606C912.521 422.21 914.333 420.832 916.163 419.481C916.904 418.922 917.646 418.362 918.409 417.786C921.317 416.305 923.507 416.393 926.726 416.606Z" fill="#747474"/>
<path d="M577.644 216.439C578.374 216.434 579.105 216.43 579.858 216.426C582.21 216.416 584.561 216.416 586.913 216.419C588.122 216.42 588.122 216.42 589.356 216.422C610.158 216.474 629.498 218.606 649.726 223.607C651.307 223.996 651.307 223.996 652.92 224.393C664.556 227.297 676.052 230.509 687.351 234.544C688.165 234.831 688.98 235.119 689.82 235.414C701.7 239.821 712.843 246.123 724.044 251.996C752.387 266.844 780.871 278.969 811.726 287.607C808.443 288.701 807.068 288.513 803.718 287.935C802.73 287.765 801.743 287.594 800.726 287.419C799.179 287.141 799.179 287.141 797.601 286.857C796.593 286.686 795.584 286.516 794.546 286.341C789.066 285.376 783.896 284.137 778.652 282.276C776.212 281.428 773.746 280.852 771.226 280.294C750.855 275.253 732.135 265.738 713.383 256.55C668.598 234.69 625.793 232.619 577.163 241.107C515.763 251.811 515.763 251.811 494.839 241.56C491.561 240.081 488.232 239.372 484.726 238.607C486.941 236.392 487.767 236.193 490.741 235.564C491.569 235.381 492.396 235.198 493.249 235.009C494.149 234.814 495.048 234.62 495.976 234.419C503.683 232.679 511.167 230.6 518.663 228.107C529.53 224.517 540.525 221.921 551.726 219.607C552.577 219.427 553.428 219.247 554.306 219.062C555.151 218.887 555.996 218.712 556.866 218.532C557.609 218.378 558.352 218.224 559.117 218.065C565.315 216.976 571.354 216.45 577.644 216.439Z" fill="#020202"/>
<path d="M957.913 52.7941C959.726 53.6066 959.726 53.6066 961.726 55.6066C961.813 56.5424 961.813 56.5424 961.901 57.4972C963.27 61.0009 966.667 61.8876 969.913 63.3566C971.367 64.0458 972.818 64.7386 974.269 65.4347C975.377 65.9655 975.377 65.9655 976.508 66.507C979.994 68.2356 983.361 70.1545 986.726 72.1066C987.33 72.4569 987.935 72.8072 988.558 73.1681C989.95 73.9773 991.338 74.7913 992.726 75.6066C992.726 76.2666 992.726 76.9266 992.726 77.6066C993.386 77.6066 994.046 77.6066 994.726 77.6066C996.476 79.0441 996.476 79.0441 997.726 81.6066C997.472 83.4542 997.472 83.4542 996.913 85.6066C992.882 101.524 998.477 119.057 1006.43 133.036C1009.35 138.836 1010.07 144.361 1010.04 150.732C1010.05 151.421 1010.07 152.111 1010.09 152.821C1010.09 157.2 1009.81 160.377 1006.73 163.607C1003.39 164.267 1003.39 164.267 999.726 163.607C997.499 161.767 995.946 160.24 994.163 158.044C993.69 157.495 993.217 156.946 992.729 156.38C991.376 154.803 990.049 153.208 988.726 151.607C987.602 150.293 986.478 148.98 985.351 147.669C984.951 147.186 984.551 146.702 984.14 146.204C980.602 142.208 976.664 138.556 972.862 134.814C971.046 133.016 969.229 131.217 967.413 129.419C966.482 128.504 965.55 127.59 964.591 126.648C963.271 125.338 963.271 125.338 961.925 124.001C961.119 123.206 960.313 122.41 959.482 121.59C957.726 119.607 957.726 119.607 957.726 117.607C957.066 117.277 956.406 116.947 955.726 116.607C953.76 112.029 953.376 107.715 953.413 102.794C953.414 102.084 953.416 101.374 953.417 100.643C953.504 95.8811 954.291 92.1774 956.05 87.8097C958.166 80.91 957.536 71.2868 954.726 64.6066C952.293 62.0375 952.293 62.0375 949.726 60.6066C949.913 58.2941 949.913 58.2941 950.726 55.6066C953.218 53.5854 954.664 52.5156 957.913 52.7941Z" fill="#727272"/>
<path d="M499.726 466.606C503.321 467.194 506.169 468.162 509.401 469.829C528.902 479.66 548.234 486.181 569.601 490.481C570.32 490.627 571.04 490.773 571.782 490.923C591.315 494.824 610.651 495.994 630.538 496.606C645.62 497.073 660.567 497.797 675.575 499.387C678.471 499.683 681.37 499.914 684.272 500.134C685.157 500.204 686.041 500.274 686.952 500.347C688.681 500.482 690.41 500.609 692.14 500.729C698.038 501.215 703.202 502.481 708.726 504.606C707.726 507.606 707.726 507.606 705.726 508.606C703.514 508.738 701.3 508.81 699.085 508.853C697.7 508.884 696.315 508.916 694.93 508.948C693.838 508.971 693.838 508.971 692.725 508.995C670.454 509.058 670.454 509.058 648.51 512.125C644.689 512.786 640.9 512.788 637.034 512.81C635.76 512.82 635.76 512.82 634.46 512.831C631.694 512.848 628.929 512.855 626.163 512.856C624.748 512.857 624.748 512.857 623.304 512.858C596.437 512.828 569.857 510.88 544.726 500.606C543.803 500.251 542.88 499.895 541.929 499.528C528.973 494.387 517.635 488.551 507.726 478.606C506.938 477.878 506.15 477.15 505.339 476.399C501.135 472.445 501.135 472.445 499.726 470.606C499.726 469.286 499.726 467.966 499.726 466.606Z" fill="#737373"/>
<path d="M423.726 494.606C426.857 496.064 429.539 497.83 432.331 499.856C447.194 510.361 463.21 517.795 480.726 522.606C481.44 522.807 482.155 523.007 482.891 523.213C490.453 525.272 498.001 526.563 505.792 527.419C526.031 529.648 544.142 534.232 562.999 542.259C581.468 550.033 602.874 551.792 622.726 552.606C623.108 554.263 623.44 555.931 623.726 557.606C621.607 559.725 616.865 558.771 613.933 558.774C613.035 558.778 612.137 558.781 611.213 558.785C609.3 558.79 607.387 558.792 605.475 558.792C602.595 558.794 599.716 558.812 596.837 558.831C582.09 558.879 568.624 557.301 554.288 553.669C552.092 553.129 549.895 552.592 547.698 552.056C546.661 551.802 545.623 551.549 544.554 551.288C528.365 547.389 511.576 544.402 494.986 542.973C468.762 540.635 445.183 527.13 428.038 507.481C427.457 506.819 426.875 506.156 426.276 505.474C424.726 503.606 424.726 503.606 422.726 500.606C423.101 497.419 423.101 497.419 423.726 494.606Z" fill="#737373"/>
<path d="M350.726 361.606C353.726 362.606 353.726 362.606 354.841 364.29C355.187 365.01 355.533 365.731 355.89 366.474C356.285 367.272 356.68 368.07 357.087 368.892C357.504 369.747 357.921 370.601 358.351 371.481C362.395 379.464 366.663 385.988 372.726 392.606C373.463 393.461 374.2 394.316 374.96 395.196C378.955 399.828 378.955 399.828 383.726 403.606C383.726 404.266 383.726 404.926 383.726 405.606C384.252 405.826 384.778 406.045 385.319 406.271C388.628 408.108 391.378 410.514 394.226 412.981C394.839 413.511 395.453 414.04 396.085 414.586C403.463 421.025 410.494 427.827 416.882 435.255C421.626 440.713 426.69 445.857 431.788 450.981C432.297 451.493 432.805 452.004 433.329 452.531C440.369 459.58 447.407 466 455.86 471.333C458.354 473.035 460.685 474.926 463.062 476.79C469.794 481.871 476.964 485.78 484.443 489.646C486.662 490.793 488.873 491.955 491.083 493.12C498.741 497.134 506.39 500.904 514.384 504.213C516.726 505.606 516.726 505.606 517.632 507.713C517.663 508.338 517.694 508.963 517.726 509.606C516.726 510.606 516.726 510.606 514.128 510.626C488.335 509.085 462.494 497.545 443.726 479.606C442.921 478.637 442.117 477.668 441.288 476.669C438.663 473.531 435.866 471.038 432.769 468.388C427.446 463.747 422.754 458.599 418.206 453.208C416.798 451.495 416.798 451.495 414.726 450.606C414.726 449.946 414.726 449.286 414.726 448.606C413.829 448.202 413.829 448.202 412.915 447.79C410.724 446.606 409.393 445.466 407.694 443.665C407.137 443.086 406.58 442.507 406.006 441.91C405.419 441.294 404.831 440.678 404.226 440.044C398.985 434.667 393.686 430.137 387.605 425.731C371.186 413.613 363.957 397.692 355.726 379.606C355.419 378.94 355.112 378.274 354.796 377.588C352.238 371.994 350.453 367.838 350.726 361.606Z" fill="#737373"/>
<path d="M675.726 204.606C676.948 204.951 678.17 205.295 679.429 205.649C704.933 212.975 727.001 225.719 748.726 240.606C749.573 241.187 750.42 241.767 751.293 242.365C754.544 244.593 757.794 246.822 761.042 249.053C767.847 253.718 774.761 258.184 781.726 262.606C782.898 263.362 784.07 264.118 785.241 264.876C791.039 268.626 796.856 272.344 802.726 275.981C803.736 276.608 804.747 277.234 805.788 277.88C808.709 279.597 811.678 281.128 814.726 282.606C811.4 283.715 810.917 283.567 807.804 282.384C807.034 282.096 806.264 281.808 805.47 281.512C804.235 281.033 804.235 281.033 802.976 280.544C801.692 280.054 801.692 280.054 800.383 279.554C798.641 278.887 796.9 278.216 795.16 277.541C793.073 276.74 790.98 275.973 788.874 275.224C769.396 268.011 751.06 255.944 734.085 244.087C726.383 238.722 718.42 234.149 710.101 229.794C708.563 228.985 708.563 228.985 706.995 228.159C696.824 222.929 686.268 218.918 675.351 215.544C674.125 215.165 674.125 215.165 672.875 214.778C671.238 214.276 669.599 213.777 667.959 213.282C666.046 212.703 664.137 212.109 662.229 211.513C648.704 207.562 634.628 205.736 620.726 203.606C619.882 203.469 619.038 203.332 618.168 203.191C588.526 198.425 556.644 200.236 528.495 210.821C525.677 211.62 524.416 211.641 521.726 210.606C522.299 210.399 522.873 210.191 523.464 209.977C524.313 209.669 525.163 209.361 526.038 209.044C527.041 208.682 528.044 208.319 529.077 207.946C531.768 206.958 534.448 205.95 537.124 204.923C547.21 201.079 557.173 197.881 567.726 195.606C568.678 195.381 569.631 195.155 570.612 194.923C603.035 188.216 644.422 194.908 675.726 204.606Z" fill="#030303"/>
<path d="M662.118 254.933C664.116 255.449 666.124 255.929 668.135 256.393C677.083 258.478 685.524 261.197 694.038 264.637C697.393 265.991 700.761 267.31 704.128 268.634C704.788 268.894 705.447 269.154 706.127 269.422C713.836 272.455 721.636 275.199 729.484 277.846C731.776 278.623 734.059 279.42 736.343 280.22C750.375 285.088 764.401 288.303 779.038 290.794C780.016 290.961 780.994 291.128 782.001 291.3C788.891 292.427 795.763 293.119 802.726 293.606C802.396 294.266 802.066 294.926 801.726 295.606C797.549 295.657 793.372 295.692 789.195 295.716C787.78 295.726 786.366 295.74 784.951 295.757C775.696 295.869 766.836 295.413 757.726 293.606C757.058 293.477 756.39 293.348 755.702 293.214C744.906 291.091 734.57 288.127 724.184 284.518C720.264 283.16 716.33 281.845 712.397 280.524C710.88 280.013 709.362 279.502 707.845 278.991C685.603 271.513 663.905 268.614 640.439 267.896C639.595 267.87 638.751 267.844 637.882 267.817C636.781 267.791 636.781 267.791 635.657 267.764C633.726 267.606 633.726 267.606 630.726 266.606C628.758 266.629 626.79 266.657 624.824 266.723C610.962 267.142 598.116 264.065 585.726 257.606C584.704 256.629 583.699 255.632 582.726 254.606C643.373 250 643.373 250 662.118 254.933Z" fill="#040404"/>
<path d="M611.03 239.333C611.854 239.32 612.677 239.308 613.526 239.295C639.458 238.979 665.248 240.001 689.726 249.606C690.608 249.948 691.491 250.29 692.401 250.642C703.046 254.806 713.432 259.265 723.476 264.731C744.194 276.004 766.689 282.927 789.726 287.606C789.726 287.936 789.726 288.266 789.726 288.606C755.934 287.393 721.416 273.288 690.651 260.31C683.745 257.444 676.81 255.525 669.538 253.856C668.623 253.646 667.709 253.435 666.766 253.217C654.197 250.454 641.789 250.371 628.976 250.356C627.581 250.353 627.581 250.353 626.159 250.349C612.981 250.337 600.151 251.002 587.061 252.526C579.037 253.441 571.116 253.938 563.038 253.981C562.053 253.995 561.067 254.008 560.052 254.022C553.119 253.979 543.873 253.754 538.726 248.606C539.264 248.542 539.803 248.477 540.357 248.41C553.435 246.829 566.492 245.121 579.54 243.318C581.161 243.094 582.783 242.871 584.404 242.648C586.704 242.332 589.004 242.013 591.304 241.692C592.34 241.55 592.34 241.55 593.397 241.405C597.078 240.89 597.078 240.89 600.703 240.086C604.096 239.282 607.56 239.381 611.03 239.333Z" fill="#040404"/>
<path d="M624.893 207.153C627.794 207.617 630.7 208.036 633.608 208.45C667.165 213.407 700.479 224.527 728.726 243.606C731.469 245.409 734.221 247.196 736.976 248.981C737.697 249.45 738.418 249.918 739.161 250.401C746.244 254.982 753.465 259.314 760.726 263.606C762.393 264.605 764.06 265.604 765.726 266.606C765.066 266.936 764.406 267.266 763.726 267.606C761.372 266.643 759.145 265.618 756.874 264.485C756.182 264.148 755.491 263.81 754.778 263.462C752.548 262.372 750.325 261.27 748.101 260.169C746.656 259.46 745.21 258.753 743.765 258.046C736.535 254.504 729.327 250.917 722.124 247.321C721.493 247.006 720.862 246.691 720.212 246.367C716.356 244.437 712.52 242.472 708.69 240.49C684.594 228.062 659.54 222.391 633.179 217.059C631.912 216.803 630.645 216.547 629.34 216.283C623.872 215.259 618.53 214.502 612.968 214.36C611.93 214.327 610.892 214.294 609.823 214.261C607.667 214.199 605.511 214.142 603.354 214.089C602.319 214.055 601.284 214.02 600.218 213.985C598.816 213.948 598.816 213.948 597.385 213.909C594.53 213.584 592.354 212.735 589.726 211.606C581.756 210.669 573.69 211.861 565.788 212.919C564.908 213.036 564.027 213.154 563.12 213.275C550.592 215.066 538.549 218.104 526.476 221.856C523.857 222.658 521.237 223.454 518.616 224.247C517.633 224.544 517.633 224.544 516.63 224.848C509.861 226.885 503.052 228.769 496.226 230.606C495.153 230.897 494.08 231.187 492.975 231.486C486.013 233.342 479.595 234.749 472.351 234.669C470.761 234.655 470.761 234.655 469.14 234.641C468.343 234.63 467.546 234.618 466.726 234.606C469.918 232.699 473.212 231.966 476.815 231.161C486.203 229.054 495.109 226.147 504.101 222.731C521.99 215.948 539.808 209.769 558.726 206.606C559.774 206.431 559.774 206.431 560.844 206.251C581.995 202.911 603.824 203.743 624.893 207.153Z" fill="#050505"/>
<path d="M644.726 271.606C652.535 271.433 660.101 271.91 667.851 272.856C668.851 272.966 669.851 273.076 670.882 273.188C686.43 275.049 701.048 279.488 715.788 284.606C729.774 289.451 743.696 293.662 758.288 296.294C759.548 296.525 760.807 296.755 762.104 296.993C768.637 298.099 775.054 298.823 781.663 299.169C782.442 299.212 783.222 299.255 784.024 299.3C785.925 299.405 787.825 299.506 789.726 299.606C784.156 303.32 777.699 302.788 771.21 302.845C770.29 302.854 769.369 302.864 768.421 302.874C748.528 303.041 729.225 303.033 709.726 298.606C708.854 298.414 707.983 298.221 707.085 298.023C684.894 292.992 664.534 283.63 644.726 272.606C644.726 272.276 644.726 271.946 644.726 271.606Z" fill="#030303"/>
<path d="M680.726 293.606C681.683 293.849 682.641 294.091 683.628 294.341C687.232 295.25 690.839 296.145 694.447 297.038C696.567 297.567 698.684 298.111 700.8 298.657C720.232 303.574 739.719 305.243 759.726 305.231C760.786 305.235 761.847 305.238 762.939 305.241C780.092 305.24 795.363 303.414 811.795 298.428C816.377 297.144 821.029 296.349 825.726 295.606C812.903 305.885 794.518 311.68 778.726 315.606C777.123 316.119 777.123 316.119 775.487 316.642C771.531 317.656 768.132 317.88 764.054 317.907C762.98 317.916 762.98 317.916 761.885 317.924C759.581 317.936 757.279 317.93 754.976 317.919C754.189 317.917 753.403 317.915 752.593 317.912C725.314 317.792 701.773 313.066 680.726 294.606C680.726 294.276 680.726 293.946 680.726 293.606Z" fill="#020202"/>
<path d="M558.726 515.606C562.821 516.574 566.774 517.597 570.726 519.044C576.288 520.949 582.034 521.899 587.808 522.915C590.101 523.32 592.392 523.742 594.675 524.204C611.583 527.616 629.83 527.727 646.893 525.318C651.567 524.666 656.02 524.523 660.726 524.606C660.515 526.938 660.515 526.938 659.726 529.606C644.132 541.167 617.859 539.019 599.601 536.856C583.945 534.311 569.745 529.142 557.726 518.606C558.056 517.616 558.386 516.626 558.726 515.606Z" fill="#737373"/>
<path d="M817.726 302.606C818.716 303.101 818.716 303.101 819.726 303.606C803.941 315.5 786.219 328.025 765.663 327.981C764.938 327.981 764.213 327.981 763.466 327.981C756.07 327.828 745.123 327.004 739.726 321.606C740.631 321.572 741.536 321.538 742.469 321.502C767.053 320.712 767.053 320.712 790.726 314.606C791.456 314.331 792.187 314.056 792.94 313.772C800.838 310.757 808.523 307.428 815.94 303.356C816.53 303.109 817.119 302.861 817.726 302.606Z" fill="#060606"/>
<path d="M616.726 202.606C619.494 202.712 622.111 202.941 624.851 203.294C625.646 203.389 626.441 203.484 627.26 203.583C635.149 204.572 642.939 206.015 650.726 207.606C650.726 207.936 650.726 208.266 650.726 208.606C642.704 212.292 633.888 209.691 625.585 208.083C620.663 207.263 615.701 206.936 610.726 206.606C611.344 206.318 611.963 206.029 612.601 205.731C614.859 204.669 614.859 204.669 616.726 202.606Z" fill="#6F6F6F"/>
<path d="M598.726 240.607C598.726 240.937 598.726 241.267 598.726 241.607C590.806 242.597 582.886 243.587 574.726 244.607C574.066 243.617 573.406 242.627 572.726 241.607C574.561 239.772 577.436 239.922 579.913 239.544C581.605 239.279 581.605 239.279 583.331 239.009C589.078 238.328 593.292 238.537 598.726 240.607Z" fill="#6C6C6C"/>
<path d="M613.726 252.607C613.726 252.937 613.726 253.267 613.726 253.607C606.37 254.314 599.116 254.754 591.726 254.607C591.726 253.947 591.726 253.287 591.726 252.607C589.086 252.607 586.446 252.607 583.726 252.607C583.726 252.277 583.726 251.947 583.726 251.607C605.656 249.86 605.656 249.86 613.726 252.607Z" fill="#616161"/>
<path d="M517.05 246.509C518.078 246.512 519.106 246.515 520.165 246.518C521.773 246.531 521.773 246.531 523.413 246.544C524.497 246.548 525.58 246.553 526.696 246.557C529.373 246.569 532.049 246.586 534.726 246.606C534.726 246.936 534.726 247.266 534.726 247.606C529.498 249.33 524.964 249.918 519.476 249.856C518.416 249.868 518.416 249.868 517.335 249.88C513.59 249.866 511.916 249.734 508.726 247.606C511.785 246.587 513.85 246.491 517.05 246.509Z" fill="#777777"/>
<path d="M753.351 318.419C754.304 318.406 755.258 318.394 756.241 318.382C757.614 318.379 757.614 318.379 759.015 318.376C759.847 318.372 760.679 318.368 761.537 318.363C763.726 318.606 763.726 318.606 766.726 320.606C756.919 321.424 747.547 321.699 737.726 320.606C737.726 320.276 737.726 319.946 737.726 319.606C742.972 318.433 747.997 318.422 753.351 318.419Z" fill="#787878"/>
<path d="M573.726 242.606C574.056 243.266 574.386 243.926 574.726 244.606C561.373 247.099 561.373 247.099 554.726 246.606C554.066 245.946 553.406 245.286 552.726 244.606C555.286 244.074 557.848 243.555 560.413 243.044C561.495 242.817 561.495 242.817 562.599 242.585C566.552 241.809 569.812 241.237 573.726 242.606Z" fill="#757575"/>
<path d="M663.726 268.606C665.916 268.697 668.104 268.853 670.288 269.044C671.486 269.146 672.683 269.248 673.917 269.353C674.844 269.436 675.771 269.52 676.726 269.606C673.638 272.748 672.218 273.585 667.737 273.778C666.294 273.66 664.852 273.518 663.413 273.356C662.673 273.291 661.932 273.225 661.169 273.157C659.353 272.993 657.539 272.802 655.726 272.606C655.726 272.276 655.726 271.946 655.726 271.606C656.86 271.297 657.994 270.988 659.163 270.669C662.513 269.977 662.513 269.977 663.726 268.606Z" fill="#696969"/>
<path d="M544.726 203.606C545.056 204.266 545.386 204.926 545.726 205.606C544.785 205.872 543.844 206.137 542.874 206.411C541.629 206.764 540.384 207.117 539.101 207.481C537.256 208.003 537.256 208.003 535.374 208.536C533.063 209.214 530.771 209.961 528.515 210.802C525.68 211.619 524.434 211.648 521.726 210.606C522.404 210.364 523.082 210.122 523.78 209.872C529.502 207.811 535.143 205.648 540.729 203.243C542.726 202.606 542.726 202.606 544.726 203.606Z" fill="#161616"/>
<path d="M601.476 213.356C602.922 213.318 602.922 213.318 604.397 213.278C605.166 213.387 605.934 213.495 606.726 213.606C607.386 214.596 608.046 215.586 608.726 216.606C594.866 216.111 594.866 216.111 580.726 215.606C580.726 215.276 580.726 214.946 580.726 214.606C587.634 214.034 594.544 213.525 601.476 213.356Z" fill="#7A7A7A"/>
<path d="M592.726 237.607C599.159 237.512 605.383 237.453 611.726 238.607C611.726 238.937 611.726 239.267 611.726 239.607C605.659 240.377 599.84 240.704 593.726 240.607C593.396 239.617 593.066 238.627 592.726 237.607Z" fill="#757575"/>
<path d="M818.726 299.606C818.726 300.266 818.726 300.926 818.726 301.606C820.706 300.946 822.686 300.286 824.726 299.606C822.417 303.07 821.711 303.167 817.851 304.169C814.578 305.033 811.706 305.991 808.726 307.606C809.722 303.919 810.384 302.813 813.726 300.794C816.726 299.606 816.726 299.606 818.726 299.606Z" fill="#707070"/>
<path d="M482.726 231.606C483.386 232.266 484.046 232.926 484.726 233.606C478.759 234.932 472.8 234.695 466.726 234.606C469.354 233.216 471.847 232.167 474.726 231.419C475.386 231.24 476.046 231.061 476.726 230.876C479.045 230.563 480.53 230.815 482.726 231.606Z" fill="#121212"/>
<path d="M615.726 190.606C615.726 190.936 615.726 191.266 615.726 191.606C617.376 191.936 619.026 192.266 620.726 192.606C620.726 192.936 620.726 193.266 620.726 193.606C614.352 194.568 608.166 194.713 601.726 194.606C601.726 194.276 601.726 193.946 601.726 193.606C603.376 193.606 605.026 193.606 606.726 193.606C606.726 192.946 606.726 192.286 606.726 191.606C609.799 190.696 612.527 190.517 615.726 190.606Z" fill="#6B6B6B"/>
<path d="M612.976 213.544C614.053 213.553 615.131 213.562 616.241 213.571C617.061 213.583 617.881 213.594 618.726 213.606C616.746 214.596 616.746 214.596 614.726 215.606C614.726 216.266 614.726 216.926 614.726 217.606C613.289 217.688 611.851 217.746 610.413 217.794C609.212 217.846 609.212 217.846 607.987 217.899C605.247 217.544 604.434 216.713 602.726 214.606C606.188 213.539 609.366 213.504 612.976 213.544Z" fill="#5F5F5F"/>
<path d="M702.726 297.607C707.918 297.395 711.852 298.015 716.726 299.607C716.726 300.267 716.726 300.927 716.726 301.607C714.954 301.465 713.184 301.318 711.413 301.169C710.427 301.088 709.441 301.007 708.425 300.923C705.726 300.607 705.726 300.607 702.726 299.607C702.726 298.947 702.726 298.287 702.726 297.607Z" fill="#767676"/>
<path d="M657.726 197.606C658.984 197.73 660.242 197.854 661.538 197.981C662.6 198.086 662.6 198.086 663.683 198.192C665.726 198.606 665.726 198.606 668.726 200.606C668.726 201.266 668.726 201.926 668.726 202.606C664.507 202.803 661.555 202.409 657.726 200.606C657.726 199.616 657.726 198.626 657.726 197.606Z" fill="#747474"/>
<path d="M350.726 361.606C353.726 362.606 353.726 362.606 355.113 365.11C355.542 366.12 355.971 367.129 356.413 368.169C356.85 369.181 357.287 370.193 357.738 371.235C358.064 372.018 358.39 372.8 358.726 373.606C358.066 373.606 357.406 373.606 356.726 373.606C356.066 371.626 355.406 369.646 354.726 367.606C354.066 367.606 353.406 367.606 352.726 367.606C352.396 368.266 352.066 368.926 351.726 369.606C350.372 366.898 350.661 364.597 350.726 361.606Z" fill="#7B7B7B"/>
<path d="M655.913 196.544C657.8 196.575 657.8 196.575 659.726 196.606C659.726 197.596 659.726 198.586 659.726 199.606C655.708 200.447 652.708 200.661 648.726 199.606C648.726 198.946 648.726 198.286 648.726 197.606C651.476 196.69 653.085 196.498 655.913 196.544Z" fill="#686868"/>
<path d="M784.726 313.606C785.056 314.596 785.386 315.586 785.726 316.606C779.449 318.822 779.449 318.822 775.788 317.731C775.107 317.36 774.427 316.989 773.726 316.606C773.726 316.276 773.726 315.946 773.726 315.606C775.183 315.271 776.642 314.938 778.101 314.606C779.319 314.328 779.319 314.328 780.562 314.044C782.726 313.606 782.726 313.606 784.726 313.606Z" fill="#686868"/>
<path d="M483.726 238.606C486.696 238.936 489.666 239.266 492.726 239.606C492.396 240.596 492.066 241.586 491.726 242.606C488.811 243.416 487.264 243.825 484.413 242.669C483.856 242.318 483.299 241.968 482.726 241.606C483.386 241.606 484.046 241.606 484.726 241.606C484.396 240.616 484.066 239.626 483.726 238.606Z" fill="#696969"/>
<path d="M517.726 213.606C518.386 213.936 519.046 214.266 519.726 214.606C519.726 215.596 519.726 216.586 519.726 217.606C516.82 218.863 514.93 219.606 511.726 219.606C511.396 218.616 511.066 217.626 510.726 216.606C513.029 215.54 515.366 214.542 517.726 213.606Z" fill="#777777"/>
<path d="M748.726 280.606C751.036 280.936 753.346 281.266 755.726 281.606C755.396 282.596 755.066 283.586 754.726 284.606C751.811 285.416 750.264 285.825 747.413 284.669C746.856 284.318 746.299 283.968 745.726 283.606C746.386 283.606 747.046 283.606 747.726 283.606C748.056 282.616 748.386 281.626 748.726 280.606Z" fill="#676767"/>
<path d="M644.726 219.606C647.366 219.936 650.006 220.266 652.726 220.606C652.396 221.596 652.066 222.586 651.726 223.606C649.086 223.276 646.446 222.946 643.726 222.606C644.056 221.616 644.386 220.626 644.726 219.606Z" fill="#767676"/>
<path d="M640.726 206.606C644.026 206.936 647.326 207.266 650.726 207.606C650.726 207.936 650.726 208.266 650.726 208.606C646.902 210.029 643.813 210.847 639.726 210.606C640.056 209.286 640.386 207.966 640.726 206.606Z" fill="#616161"/>
<path d="M548.413 251.919C549.506 252.146 550.599 252.373 551.726 252.607C550.736 254.092 550.736 254.092 549.726 255.607C547.086 255.277 544.446 254.947 541.726 254.607C543.833 251.508 544.546 251.591 548.413 251.919Z" fill="#646464"/>
<path d="M660.726 251.607C660.726 252.597 660.726 253.587 660.726 254.607C656.766 254.277 652.806 253.947 648.726 253.607C648.726 253.277 648.726 252.947 648.726 252.607C652.789 251.832 656.59 251.508 660.726 251.607Z" fill="#7A7A7A"/>
<path d="M608.726 202.606C611.366 202.606 614.006 202.606 616.726 202.606C615.736 204.091 615.736 204.091 614.726 205.606C612.101 205.794 612.101 205.794 609.726 205.606C609.396 204.616 609.066 203.626 608.726 202.606Z" fill="#787878"/>
<path d="M765.726 294.606C767.376 294.606 769.026 294.606 770.726 294.606C771.056 295.926 771.386 297.246 771.726 298.606C769.746 298.606 767.766 298.606 765.726 298.606C765.726 297.273 765.726 295.94 765.726 294.606Z" fill="#676767"/>
<path d="M753.726 282.606C757.351 282.981 757.351 282.981 760.726 283.606C758.348 285.984 757.023 286.277 753.726 286.606C753.066 285.946 752.406 285.286 751.726 284.606C752.386 283.946 753.046 283.286 753.726 282.606Z" fill="#767676"/>
<path d="M687.726 258.606C689.706 259.266 691.686 259.926 693.726 260.606C694.056 262.256 694.386 263.906 694.726 265.606C692.251 264.616 692.251 264.616 689.726 263.606C689.726 262.946 689.726 262.286 689.726 261.606C689.066 261.276 688.406 260.946 687.726 260.606C687.726 259.946 687.726 259.286 687.726 258.606Z" fill="#6C6C6C"/>
<path d="M675.726 200.606C674.736 201.266 673.746 201.926 672.726 202.606C672.066 202.276 671.406 201.946 670.726 201.606C670.726 202.266 670.726 202.926 670.726 203.606C669.406 203.276 668.086 202.946 666.726 202.606C666.726 201.946 666.726 201.286 666.726 200.606C669.794 199.072 672.427 200.057 675.726 200.606Z" fill="#646464"/>
<path d="M778.726 317.606C775.498 319.758 774.442 319.807 770.726 319.606C770.396 318.946 770.066 318.286 769.726 317.606C772.794 316.072 775.427 317.057 778.726 317.606Z" fill="#777777"/>
<path d="M816.726 299.606C817.386 299.606 818.046 299.606 818.726 299.606C818.726 300.266 818.726 300.926 818.726 301.606C820.706 300.946 822.686 300.286 824.726 299.606C822.726 302.606 822.726 302.606 819.601 303.294C818.652 303.397 817.703 303.5 816.726 303.606C816.726 302.286 816.726 300.966 816.726 299.606Z" fill="#525252"/>
<path d="M825.726 296.607C820.433 299.684 820.433 299.684 816.851 299.294C816.149 299.067 815.448 298.84 814.726 298.607C818.729 296.462 821.293 295.129 825.726 296.607Z" fill="#1A1A1A"/>
<path d="M586.726 238.606C591.194 238.394 594.548 239.015 598.726 240.606C598.726 240.936 598.726 241.266 598.726 241.606C594.178 241.785 590.846 241.604 586.726 239.606C586.726 239.276 586.726 238.946 586.726 238.606Z" fill="#5E5E5E"/>
<path d="M634.726 205.607C634.726 206.267 634.726 206.927 634.726 207.607C632.416 207.937 630.106 208.267 627.726 208.607C628.056 207.617 628.386 206.627 628.726 205.607C631.217 204.361 632.136 204.83 634.726 205.607Z" fill="#6A6A6A"/>
<path d="M731.726 301.606C733.046 301.606 734.366 301.606 735.726 301.606C735.396 302.596 735.066 303.586 734.726 304.606C732.086 304.606 729.446 304.606 726.726 304.606C727.365 304.297 728.004 303.988 728.663 303.669C730.662 302.772 730.662 302.772 731.726 301.606Z" fill="#676767"/>
<path d="M546.726 244.606C550.944 244.41 553.896 244.804 557.726 246.606C557.726 246.936 557.726 247.266 557.726 247.606C553.507 247.802 550.555 247.409 546.726 245.606C546.726 245.276 546.726 244.946 546.726 244.606Z" fill="#676767"/>
<path d="M659.726 221.606C659.726 223.256 659.726 224.906 659.726 226.606C656.756 226.111 656.756 226.111 653.726 225.606C654.386 225.276 655.046 224.946 655.726 224.606C655.726 223.946 655.726 223.286 655.726 222.606C658.726 221.606 658.726 221.606 659.726 221.606Z" fill="#666666"/>
<path d="M631.726 192.606C633.706 192.606 635.686 192.606 637.726 192.606C636.736 192.936 635.746 193.266 634.726 193.606C634.726 194.596 634.726 195.586 634.726 196.606C633.406 196.606 632.086 196.606 630.726 196.606C631.056 195.286 631.386 193.966 631.726 192.606Z" fill="#666666"/>
<path d="M13.184 609.092C14.9693 609.092 20.5313 609.367 29.87 609.916C39.346 610.465 57.886 610.74 85.49 610.74C113.094 610.74 129.78 610.328 135.548 609.504C137.059 609.504 138.089 609.916 138.638 610.74C139.187 611.564 139.462 612.319 139.462 613.006L140.698 629.692C140.698 633.125 140.492 635.323 140.08 636.284C139.668 637.108 138.775 637.52 137.402 637.52C136.303 637.52 135.342 636.147 134.518 633.4C133.831 630.516 133.076 628.319 132.252 626.808C130.192 623.237 124.218 621.452 114.33 621.452H87.55C84.254 621.452 82.194 622.139 81.37 623.512C80.6833 624.748 80.34 628.456 80.34 634.636V644.73L79.722 720.126L79.516 733.516C79.516 739.421 80.4087 743.267 82.194 745.052C84.1167 746.837 86.1767 748.211 88.374 749.172C90.5713 749.996 92.4253 750.477 93.936 750.614C97.7813 750.889 99.704 752.125 99.704 754.322C99.704 755.833 99.3607 756.794 98.674 757.206C97.9873 757.618 96.6827 757.824 94.76 757.824L71.894 756.176L50.882 757.618C45.8007 757.618 43.26 756.519 43.26 754.322C43.26 752.949 43.672 752.056 44.496 751.644C45.32 751.095 46.8993 750.683 49.234 750.408C51.706 749.996 53.2853 749.721 53.972 749.584C58.6413 748.485 61.2507 745.739 61.8 741.344C63.1733 729.259 63.86 703.303 63.86 663.476L63.654 626.602C63.654 623.993 62.8987 622.413 61.388 621.864C59.8773 621.177 54.8647 620.834 46.35 620.834C37.8353 620.834 31.106 621.109 26.162 621.658C21.3553 622.207 18.54 622.757 17.716 623.306C16.892 623.718 15.862 624.679 14.626 626.19C13.5273 627.701 12.566 629.486 11.742 631.546C11.0553 633.469 10.5747 635.048 10.3 636.284C9.888 639.443 8.58333 641.022 6.386 641.022C4.87533 641.022 4.12 639.855 4.12 637.52C4.12 632.027 4.46333 627.083 5.15 622.688C5.83667 618.156 6.18 615.547 6.18 614.86C6.31733 614.173 6.386 613.761 6.386 613.624C6.52333 613.349 6.592 613.006 6.592 612.594C6.72933 612.045 6.86667 611.701 7.004 611.564C7.14133 611.289 7.27867 611.015 7.416 610.74C7.69067 610.328 7.96533 610.053 8.24 609.916C8.51467 609.779 8.858 609.641 9.27 609.504C10.094 609.229 11.3987 609.092 13.184 609.092ZM172.036 755.97L157.41 757C153.976 757 152.191 756.794 152.054 756.382C151.916 755.97 151.848 755.489 151.848 754.94C151.848 753.567 152.672 752.674 154.32 752.262C158.302 751.163 160.843 749.447 161.942 747.112C163.178 744.64 163.796 741.069 163.796 736.4L164.62 666.154V656.06C164.62 637.383 164.208 625.984 163.384 621.864C162.56 617.744 160.088 615.684 155.968 615.684H153.29L152.466 615.478C150.131 615.478 148.964 614.86 148.964 613.624C148.964 612.388 149.65 611.427 151.024 610.74C152.534 609.916 154.594 609.161 157.204 608.474C159.95 607.787 163.796 606.345 168.74 604.148C173.684 601.951 176.774 600.852 178.01 600.852C179.795 600.852 180.688 602.431 180.688 605.59C180.688 606.277 180.413 607.925 179.864 610.534C179.452 613.143 179.177 618.225 179.04 625.778C179.04 633.194 178.902 641.228 178.628 649.88C178.49 658.395 178.353 664.163 178.216 667.184C177.941 672.952 177.804 677.003 177.804 679.338C177.804 681.673 178.353 682.84 179.452 682.84C179.726 682.84 181.1 681.604 183.572 679.132C186.181 676.523 189.683 673.982 194.078 671.51C198.61 668.901 203.416 667.596 208.498 667.596C219.622 667.596 228.274 670.892 234.454 677.484C240.634 684.076 243.724 694.307 243.724 708.178V738.048C243.724 741.756 244.41 744.64 245.784 746.7C247.157 748.76 248.736 749.859 250.522 749.996C257.938 750.683 261.646 752.125 261.646 754.322C261.646 756.519 259.517 757.618 255.26 757.618L237.956 756.588L222.094 757.206C218.935 757.206 217.356 756.519 217.356 755.146C217.356 752.674 219.21 751.438 222.918 751.438C224.291 751.438 225.527 750.683 226.626 749.172C227.862 747.661 228.48 745.327 228.48 742.168L228.686 736.812L228.892 707.972C228.892 699.595 226.351 692.385 221.27 686.342C216.188 680.162 210.283 677.072 203.554 677.072C196.962 677.072 190.232 679.75 183.366 685.106C180.894 687.029 179.314 690.187 178.628 694.582C177.941 698.839 177.598 708.384 177.598 723.216V727.954C177.598 734.134 178.078 739.147 179.04 742.992C180.55 748.348 184.327 751.232 190.37 751.644C192.292 751.781 193.734 752.056 194.696 752.468C195.794 752.743 196.344 753.429 196.344 754.528C196.344 756.176 195.588 757 194.078 757L188.722 756.794C185.151 756.657 181.512 756.519 177.804 756.382C174.233 756.107 172.31 755.97 172.036 755.97ZM315.236 760.914C303.151 760.914 292.851 757.206 284.336 749.79C275.959 742.374 271.77 731.662 271.77 717.654C271.77 703.509 275.616 691.698 283.306 682.222C291.134 672.746 301.228 668.008 313.588 668.008C319.356 668.008 324.575 669.038 329.244 671.098C334.051 673.158 337.759 675.699 340.368 678.72C342.978 681.604 345.175 684.694 346.96 687.99C349.982 693.621 351.492 697.878 351.492 700.762C351.492 703.234 348.677 704.47 343.046 704.47H290.104C289.006 704.47 288.319 704.607 288.044 704.882C287.907 705.019 287.838 705.637 287.838 706.736C287.838 719.645 291.272 729.808 298.138 737.224C305.142 744.64 313.314 748.348 322.652 748.348C328.42 748.348 334.257 746.837 340.162 743.816C346.205 740.657 349.364 739.078 349.638 739.078C351.012 739.078 351.698 739.696 351.698 740.932C351.698 742.58 350.188 744.846 347.166 747.73C344.145 750.477 341.261 752.743 338.514 754.528C331.922 758.785 324.163 760.914 315.236 760.914ZM291.752 699.526L328.008 698.29C329.931 698.29 331.098 698.153 331.51 697.878C332.06 697.466 332.334 696.779 332.334 695.818C332.334 691.698 330.412 686.891 326.566 681.398C322.721 675.905 317.365 673.158 310.498 673.158C303.632 673.158 298.344 675.905 294.636 681.398C290.928 686.754 289.074 691.835 289.074 696.642C289.074 698.565 289.967 699.526 291.752 699.526ZM412.615 687.166C412.615 664.094 419.55 645.211 433.421 630.516C447.291 615.684 466.93 608.268 492.337 608.268C504.147 608.268 514.791 609.985 524.267 613.418C533.743 616.851 541.227 621.109 546.721 626.19C552.214 631.134 556.815 636.833 560.523 643.288C566.977 654.549 570.205 665.536 570.205 676.248C570.205 694.925 566.565 710.719 559.287 723.628C545.416 748.073 522.138 760.296 489.453 760.296C473.11 760.296 458.965 756.725 447.017 749.584C435.206 742.443 426.485 733.447 420.855 722.598C415.361 711.749 412.615 699.938 412.615 687.166ZM430.743 676.66C430.743 688.883 433.97 701.38 440.425 714.152C443.858 721.019 447.978 727.199 452.785 732.692C457.729 738.048 463.909 742.511 471.325 746.082C478.878 749.515 487.118 751.232 496.045 751.232C506.207 751.232 516.233 748.279 526.121 742.374C537.107 735.919 544.867 726.924 549.399 715.388C552.008 709.208 553.313 702.479 553.313 695.2C553.313 670.343 546.789 651.047 533.743 637.314C520.696 623.443 504.559 616.508 485.333 616.508C470.226 616.508 457.317 621.589 446.605 631.752C436.03 641.915 430.743 656.884 430.743 676.66ZM597.92 717.448L598.744 629.898C598.744 626.739 598.194 623.924 597.096 621.452C596.134 618.843 595.036 617.263 593.8 616.714C592.564 616.165 589.817 615.89 585.56 615.89C584.049 615.89 583.294 615.409 583.294 614.448C583.294 613.487 583.362 612.8 583.5 612.388C583.774 611.976 584.255 611.633 584.942 611.358C585.628 610.946 586.452 610.603 587.414 610.328C591.396 609.504 595.516 608.062 599.774 606.002C606.503 602.843 610.898 601.264 612.958 601.264C614.606 601.264 615.43 602.569 615.43 605.178C615.43 605.727 615.292 607.307 615.018 609.916C614.194 618.019 613.782 626.877 613.782 636.49V648.026L613.37 675.424V736.812C613.37 739.696 613.576 742.099 613.988 744.022C614.537 745.807 616.116 747.593 618.726 749.378C621.472 751.026 625.249 751.85 630.056 751.85C630.742 751.85 631.36 752.193 631.91 752.88C632.459 753.567 632.734 754.253 632.734 754.94C632.734 756.863 630.605 757.824 626.348 757.824L605.542 756.382C601.971 756.382 598.538 756.657 595.242 757.206C592.083 757.755 589.954 758.03 588.856 758.03C587.894 758.03 587.07 757.755 586.384 757.206C585.834 756.794 585.56 756.245 585.56 755.558C585.56 754.734 585.834 754.116 586.384 753.704C587.07 753.155 588.1 752.743 589.474 752.468C593.594 751.369 596.066 749.721 596.89 747.524C597.714 745.189 598.126 742.031 598.126 738.048L597.92 732.692V717.448ZM715.861 757.618L715.243 749.996C715.243 747.661 714.625 746.494 713.389 746.494C712.977 746.494 711.947 747.181 710.299 748.554C708.789 749.927 707.003 751.507 704.943 753.292C702.883 754.94 699.862 756.451 695.879 757.824C692.034 759.197 687.845 759.884 683.313 759.884C670.541 759.884 660.585 755.695 653.443 747.318C646.302 738.803 642.731 728.297 642.731 715.8C642.731 703.165 647.126 691.835 655.915 681.81C664.842 671.785 677.133 666.772 692.789 666.772C696.36 666.772 701.029 667.802 706.797 669.862C712.703 671.785 715.93 672.746 716.479 672.746C717.029 672.746 717.303 670.274 717.303 665.33L717.715 638.756C717.715 631.34 717.303 626.121 716.479 623.1C715.793 620.079 714.625 618.087 712.977 617.126C711.467 616.165 709.407 615.684 706.797 615.684H704.531C702.471 615.684 701.235 615.615 700.823 615.478C700.411 615.341 700.205 614.86 700.205 614.036V613.83C700.205 612.869 700.892 612.182 702.265 611.77C703.639 611.221 706.385 610.328 710.505 609.092C714.763 607.719 718.059 606.483 720.393 605.384C722.865 604.285 724.719 603.461 725.955 602.912C728.565 601.539 730.419 600.852 731.517 600.852C733.165 600.852 733.989 602.225 733.989 604.972C733.989 605.384 733.509 611.221 732.547 622.482C731.723 633.743 731.311 642.807 731.311 649.674L730.899 724.864C730.899 734.203 731.311 740.451 732.135 743.61C733.097 746.769 735.088 748.829 738.109 749.79C738.521 749.927 739.689 750.202 741.611 750.614C743.534 750.889 744.907 751.301 745.731 751.85C746.555 752.262 746.967 753.017 746.967 754.116C746.967 755.764 741.68 757 731.105 757.824C728.908 757.961 726.367 758.305 723.483 758.854C720.599 759.541 718.814 759.884 718.127 759.884C716.617 759.884 715.861 759.129 715.861 757.618ZM686.197 672.746C677.271 672.746 670.267 676.042 665.185 682.634C660.104 689.089 657.563 697.397 657.563 707.56C657.563 717.723 660.722 727.199 667.039 735.988C673.494 744.777 681.734 749.172 691.759 749.172C697.939 749.172 703.57 747.593 708.651 744.434C713.733 741.275 716.273 737.43 716.273 732.898L716.479 697.672C716.479 689.295 714.557 684.007 710.711 681.81C700.549 675.767 692.377 672.746 686.197 672.746ZM888.761 615.066L893.499 613.418C895.285 613.418 896.315 613.967 896.589 615.066C899.473 631.683 900.915 641.503 900.915 644.524C900.915 647.408 899.954 648.85 898.031 648.85C896.795 648.85 895.559 647.408 894.323 644.524C893.225 641.503 891.851 638.756 890.203 636.284C888.693 633.812 887.594 632.233 886.907 631.546C886.221 630.859 884.435 629.211 881.551 626.602C874.135 620.01 865.621 616.714 856.007 616.714C846.531 616.714 838.909 618.774 833.141 622.894C827.373 627.014 824.489 632.37 824.489 638.962C824.489 645.554 826.137 650.841 829.433 654.824C832.867 658.807 837.399 661.897 843.029 664.094C848.66 666.291 854.565 668.351 860.745 670.274C877.363 675.493 889.654 682.291 897.619 690.668C903.113 696.573 905.859 703.921 905.859 712.71C905.859 727.13 901.259 738.597 892.057 747.112C882.856 755.489 871.457 759.678 857.861 759.678C848.385 759.678 840.763 759.129 834.995 758.03C829.227 757.069 823.322 755.009 817.279 751.85C815.494 750.751 813.365 745.395 810.893 735.782C808.421 726.169 807.185 720.195 807.185 717.86C807.185 715.388 808.078 714.152 809.863 714.152C811.786 714.152 812.953 714.839 813.365 716.212C818.447 728.435 824.421 737.087 831.287 742.168C838.703 747.799 847.63 750.614 858.067 750.614C868.642 750.614 877.019 747.936 883.199 742.58C889.517 737.087 892.675 729.945 892.675 721.156C892.675 714.701 890.547 709.345 886.289 705.088C882.032 700.693 877.157 697.535 871.663 695.612C851.201 688.745 837.33 683.183 830.051 678.926C817.554 671.51 811.305 661.553 811.305 649.056C811.305 636.559 815.7 626.671 824.489 619.392C833.416 611.976 844.952 608.268 859.097 608.268C864.316 608.268 870.496 609.435 877.637 611.77C884.916 613.967 888.624 615.066 888.761 615.066ZM1002.21 670.068L1008.59 669.862C1011.61 669.862 1013.12 670.823 1013.12 672.746C1013.12 673.707 1012.92 674.257 1012.51 674.394C1011.68 674.669 1010.86 674.806 1010.03 674.806C1005.91 675.081 1003.85 677.003 1003.85 680.574C1003.85 685.655 1007.91 697.123 1016.01 714.976C1017.11 717.173 1018.41 720.195 1019.92 724.04C1022.94 731.868 1024.87 735.782 1025.69 735.782C1027.06 735.782 1030.63 728.297 1036.4 713.328C1042.31 698.221 1045.26 688.883 1045.26 685.312C1045.26 681.741 1044.64 679.338 1043.41 678.102C1042.31 676.729 1041.07 675.973 1039.7 675.836C1035.85 675.287 1033.93 673.913 1033.93 671.716C1033.93 670.617 1035.37 670.068 1038.26 670.068H1061.95C1064.56 670.068 1066.2 670.205 1066.89 670.48C1067.58 670.755 1067.92 671.51 1067.92 672.746C1067.92 673.982 1066.75 675.081 1064.42 676.042C1062.22 676.866 1060.44 678.239 1059.06 680.162C1057.69 682.085 1056.45 684.213 1055.35 686.548C1054.26 688.745 1053.02 691.492 1051.65 694.788C1047.53 705.088 1042.38 716.761 1036.2 729.808C1030.02 742.855 1026.58 749.996 1025.9 751.232C1025.35 752.468 1024.59 753.91 1023.63 755.558C1022.26 758.305 1020.95 759.678 1019.72 759.678C1017.38 759.678 1012.99 750.82 1006.53 733.104C1000.08 715.251 996.301 706.324 995.202 706.324C994.79 706.324 990.395 715.113 982.018 732.692C973.641 750.271 968.147 759.06 965.538 759.06C964.439 759.06 963.409 758.099 962.448 756.176C961.487 754.253 958.809 747.661 954.414 736.4C950.157 725.139 946.655 716.143 943.908 709.414C941.161 702.547 939.17 697.466 937.934 694.17C936.835 690.737 936.011 688.333 935.462 686.96C933.539 683.115 930.312 679.269 925.78 675.424C925.231 674.875 924.613 674.463 923.926 674.188C923.239 673.776 922.759 673.501 922.484 673.364C922.072 672.952 921.866 672.265 921.866 671.304C921.866 669.793 923.171 669.038 925.78 669.038L940.406 669.862L950.5 669.656C954.62 669.656 957.229 669.793 958.328 670.068C959.564 670.205 960.182 670.823 960.182 671.922C960.182 673.021 959.427 673.776 957.916 674.188C953.384 675.149 951.118 677.896 951.118 682.428C951.118 686.823 954.963 697.672 962.654 714.976C963.615 716.899 964.92 719.92 966.568 724.04C968.216 728.023 969.521 730.975 970.482 732.898C971.443 734.683 972.199 735.576 972.748 735.576C973.297 735.576 975.014 732.829 977.898 727.336C980.919 721.705 982.911 717.86 983.872 715.8C984.971 713.74 985.795 712.229 986.344 711.268C986.893 710.169 987.511 709.002 988.198 707.766C988.885 706.393 989.365 705.431 989.64 704.882C989.915 704.195 990.189 703.44 990.464 702.616C990.876 701.792 991.151 701.243 991.288 700.968C991.425 700.556 991.563 700.075 991.7 699.526C991.837 698.839 991.906 698.29 991.906 697.878V696.436C991.906 695.475 991.219 693.415 989.846 690.256C988.61 687.097 987.237 684.488 985.726 682.428C984.353 680.231 982.842 678.445 981.194 677.072C979.546 675.699 978.31 674.875 977.486 674.6C975.289 673.776 974.19 672.746 974.19 671.51C974.19 670.274 975.22 669.656 977.28 669.656L1002.21 670.068ZM1106.04 760.09C1089.83 760.09 1081.73 753.223 1081.73 739.49C1081.73 729.602 1085.85 722.804 1094.09 719.096C1100.96 716.212 1111.46 713.603 1125.61 711.268C1126.02 711.131 1126.57 711.062 1127.26 711.062C1127.94 710.925 1128.63 710.787 1129.32 710.65C1130.14 710.513 1130.76 710.375 1131.17 710.238C1132.13 709.826 1132.61 708.865 1132.61 707.354L1133.03 696.642C1133.03 688.814 1130.76 683.183 1126.23 679.75C1121.7 676.179 1117.3 674.394 1113.04 674.394C1103.16 674.394 1098.21 678.514 1098.21 686.754L1099.04 694.17C1099.04 696.917 1097.8 698.29 1095.33 698.29C1093.41 698.29 1091.28 697.947 1088.94 697.26C1084.68 695.887 1082.56 693.552 1082.56 690.256C1082.56 684.9 1086.13 679.819 1093.27 675.012C1100.55 670.068 1107.83 667.596 1115.1 667.596C1122.38 667.596 1128.08 668.283 1132.2 669.656C1136.32 671.029 1139.34 672.609 1141.27 674.394C1143.33 676.042 1144.91 678.308 1146 681.192C1147.38 684.625 1148.06 690.05 1148.06 697.466C1148.06 704.745 1147.86 711.268 1147.45 717.036C1147.17 722.667 1147.03 727.817 1147.03 732.486C1147.03 737.155 1147.58 741.001 1148.68 744.022C1149.78 746.906 1151.09 748.76 1152.6 749.584C1154.11 750.408 1155.62 750.889 1157.13 751.026C1160.84 751.301 1162.69 752.399 1162.69 754.322C1162.69 757.206 1158.36 758.648 1149.71 758.648C1146.14 758.648 1143.05 757.687 1140.44 755.764C1137.97 753.841 1136.18 751.987 1135.09 750.202C1133.99 748.279 1133.37 747.318 1133.23 747.318C1133.09 747.318 1132.55 747.799 1131.58 748.76C1130.62 749.584 1129.25 750.614 1127.46 751.85C1125.82 753.086 1123.89 754.322 1121.7 755.558C1116.61 758.579 1111.4 760.09 1106.04 760.09ZM1131.17 714.152L1129.11 714.564C1125.95 715.113 1123.96 715.457 1123.14 715.594C1122.31 715.731 1120.39 716.143 1117.37 716.83C1114.35 717.517 1112.22 718.135 1110.98 718.684C1109.89 719.233 1108.24 720.126 1106.04 721.362C1103.98 722.461 1102.47 723.628 1101.51 724.864C1099.04 728.709 1097.8 732.761 1097.8 737.018C1097.8 741.275 1099.17 744.846 1101.92 747.73C1104.67 750.477 1108.17 751.85 1112.43 751.85C1116.82 751.85 1120.25 751.301 1122.73 750.202C1125.34 749.103 1127.26 747.867 1128.49 746.494C1129.73 745.121 1130.69 743.267 1131.38 740.932C1132.2 738.323 1132.61 734.958 1132.61 730.838V716.006C1132.61 714.77 1132.13 714.152 1131.17 714.152ZM1217.88 757L1202.85 756.176C1199.28 756.176 1194.54 756.313 1188.63 756.588L1179.77 757C1177.71 757 1176.68 756.382 1176.68 755.146C1176.68 753.91 1177.03 753.155 1177.71 752.88C1178.4 752.605 1179.23 752.399 1180.19 752.262C1181.29 752.125 1182.32 751.713 1183.28 751.026C1185.89 749.378 1187.33 744.434 1187.6 736.194C1187.88 727.817 1188.01 722.323 1188.01 719.714V690.05C1188.01 685.655 1187.19 682.703 1185.54 681.192C1184.03 679.681 1181.9 678.926 1179.16 678.926H1177.1C1174.49 678.926 1173.18 678.171 1173.18 676.66C1173.18 675.287 1174.62 674.394 1177.51 673.982C1180.53 673.57 1182.86 673.158 1184.51 672.746C1186.3 672.197 1188.56 671.373 1191.31 670.274C1194.19 669.038 1196.46 668.008 1198.11 667.184C1199.89 666.36 1201.06 665.948 1201.61 665.948H1202.02C1203.26 665.948 1203.88 666.772 1203.88 668.42L1203.46 677.278C1203.46 680.849 1203.74 682.634 1204.29 682.634C1204.84 682.634 1205.39 682.291 1205.94 681.604C1208 678.72 1210.74 676.248 1214.18 674.188C1220.36 670.343 1226.26 668.42 1231.89 668.42C1237.52 668.42 1242.54 669.313 1246.93 671.098C1251.33 672.746 1254.76 674.875 1257.23 677.484C1259.7 679.956 1261.76 682.84 1263.41 686.136C1266.16 691.629 1267.53 697.26 1267.53 703.028V705.088L1267.74 716.006V737.018C1267.74 742.237 1268.42 745.876 1269.8 747.936C1271.31 749.859 1274.81 751.232 1280.3 752.056C1283.05 752.468 1284.42 753.498 1284.42 755.146C1284.42 756.519 1283.05 757.206 1280.3 757.206L1263.41 756.176L1247.55 757C1244.8 757 1243.43 756.107 1243.43 754.322C1243.43 753.086 1244.25 752.262 1245.9 751.85L1248.58 751.232C1251.6 750.271 1253.11 745.67 1253.11 737.43V709.62C1253.11 699.045 1250.5 691.08 1245.28 685.724C1240.06 680.231 1234.16 677.484 1227.57 677.484C1220.97 677.484 1215.48 679.063 1211.09 682.222C1206.69 685.381 1204.01 688.333 1203.05 691.08C1202.09 693.827 1201.61 704.333 1201.61 722.598V730.426C1201.61 737.293 1202.3 742.374 1203.67 745.67C1205.18 748.966 1208.41 750.82 1213.35 751.232C1214.73 751.232 1216.44 751.507 1218.5 752.056C1220.7 752.468 1221.8 753.223 1221.8 754.322C1221.8 756.107 1220.49 757 1217.88 757Z" fill="black"/>
</svg>
